<?xml version="1.0" encoding="utf-8"?>
<!-- Generator: Adobe Illustrator 25.0.1, SVG Export Plug-In . SVG Version: 6.00 Build 0)  -->
<svg version="1.1" id="Layer_1" xmlns="http://www.w3.org/2000/svg" xmlns:xlink="http://www.w3.org/1999/xlink" x="0px" y="0px"
	 viewBox="0 0 500 500" style="enable-background:new 0 0 500 500;" xml:space="preserve">
<style type="text/css">
	.st0{fill:#0101FE;}
	.st1{fill:#231F20;}
</style>
<g>
	<g>
		<path class="st0" d="M134.36,192.05c20.41-42.56,63.92-72.03,114.2-72.03s93.79,29.47,114.2,72.03h49.9
			c-22.9-68.72-87.78-118.42-164.1-118.42s-141.2,49.7-164.1,118.42H134.36z"/>
		<path class="st0" d="M352.36,318.89c-22.9,32.77-60.87,54.27-103.8,54.27s-80.9-21.5-103.8-54.27H91.49
			c27.43,59.36,87.5,100.67,157.07,100.67s129.64-41.31,157.07-100.67H352.36z"/>
	</g>
	<g>
		<path class="st1" d="M44.47,214.66c17.86,0,30.57,10.29,34.1,26.43H57.28c-2.52-5.35-7.26-8.27-13.11-8.27
			c-9.08,0-15.03,7.06-15.03,17.96c0,11,5.95,18.06,15.03,18.06c5.85,0,10.59-2.93,13.11-8.27h21.29
			C75.04,276.71,62.33,287,44.47,287c-21.39,0-35.41-14.93-35.41-36.22C9.06,229.6,23.09,214.66,44.47,214.66z"/>
		<path class="st1" d="M131.84,257.94h-24.11v28.55H87.96v-71.12h19.77v26.73h24.11v-26.73h19.77v71.12h-19.77V257.94z"/>
		<path class="st1" d="M207.92,274.89H182.7l-3.83,11.6h-20.78l25.93-71.12h22.8l25.83,71.12h-20.88L207.92,274.89z M195.31,236.76
			l-7.57,23h15.23L195.31,236.76z"/>
		<path class="st1" d="M235.17,215.37h57.5v15.74H273.7v55.38h-19.77v-55.38h-18.76V215.37z"/>
		<path class="st1" d="M345.03,274.89h-25.22l-3.83,11.6H295.2l25.93-71.12h22.8l25.83,71.12h-20.88L345.03,274.89z M332.42,236.76
			l-7.57,23h15.23L332.42,236.76z"/>
		<path class="st1" d="M405.77,262.48h-9.79v24.01h-19.77v-71.12h29.56c17.65,0,26.63,9.99,26.63,23.71
			C432.41,251.49,423.83,262.48,405.77,262.48z M403.86,246.74c5.95,0,8.37-3.03,8.37-7.67c0-4.74-2.42-7.77-8.37-7.77h-7.87v15.43
			H403.86z"/>
		<path class="st1" d="M469.94,262.48h-9.79v24.01h-19.77v-71.12h29.56c17.65,0,26.63,9.99,26.63,23.71
			C496.57,251.49,488,262.48,469.94,262.48z M468.03,246.74c5.95,0,8.37-3.03,8.37-7.67c0-4.74-2.42-7.77-8.37-7.77h-7.87v15.43
			H468.03z"/>
	</g>
</g>
</svg>
